<svg width="15" height="12" viewBox="0 0 15 12" fill="none" xmlns="http://www.w3.org/2000/svg">
<path d="M14.25 0.75H0.75C0.546875 0.75 0.371094 0.824219 0.222656 0.972656C0.0742188 1.12109 0 1.29688 0 1.5V2.25C0 2.45312 0.0742188 2.62891 0.222656 2.77734C0.371094 2.92578 0.546875 3 0.75 3H14.25C14.4531 3 14.6289 2.92578 14.7773 2.77734C14.9258 2.62891 15 2.45312 15 2.25V1.5C15 1.29688 14.9258 1.12109 14.7773 0.972656C14.6289 0.824219 14.4531 0.75 14.25 0.75ZM14.25 5.25H0.75C0.546875 5.25 0.371094 5.32422 0.222656 5.47266C0.0742188 5.62109 0 5.79688 0 6V6.75C0 6.95312 0.0742188 7.12891 0.222656 7.27734C0.371094 7.42578 0.546875 7.5 0.75 7.5H14.25C14.4531 7.5 14.6289 7.42578 14.7773 7.27734C14.9258 7.12891 15 6.95312 15 6.75V6C15 5.79688 14.9258 5.62109 14.7773 5.47266C14.6289 5.32422 14.4531 5.25 14.25 5.25ZM14.25 9.75H0.75C0.546875 9.75 0.371094 9.82422 0.222656 9.97266C0.0742188 10.1211 0 10.2969 0 10.5V11.25C0 11.4531 0.0742188 11.6289 0.222656 11.7773C0.371094 11.9258 0.546875 12 0.75 12H14.25C14.4531 12 14.6289 11.9258 14.7773 11.7773C14.9258 11.6289 15 11.4531 15 11.25V10.5C15 10.2969 14.9258 10.1211 14.7773 9.97266C14.6289 9.82422 14.4531 9.75 14.25 9.75Z" fill="#030407"/>
</svg>
